<svg id="Logotipo" xmlns="http://www.w3.org/2000/svg" xmlns:xlink="http://www.w3.org/1999/xlink" viewBox="0 0 764 445.98"><defs><style>.cls-1{fill:#1d1d1b;}.cls-2{fill:url(#Degradado_sin_nombre_56);}.cls-3{fill:url(#Degradado_sin_nombre_56-2);}.cls-4{fill:url(#Degradado_sin_nombre_56-3);}</style><linearGradient id="Degradado_sin_nombre_56" x1="677.2" y1="419.61" x2="550.81" y2="554.59" gradientUnits="userSpaceOnUse"><stop offset="0" stop-color="#0099cd"/><stop offset="1" stop-color="#32245e"/></linearGradient><linearGradient id="Degradado_sin_nombre_56-2" x1="512.41" y1="327.57" x2="747.56" y2="559.64" xlink:href="#Degradado_sin_nombre_56"/><linearGradient id="Degradado_sin_nombre_56-3" x1="452.11" y1="388.66" x2="687.27" y2="620.73" xlink:href="#Degradado_sin_nombre_56"/></defs><path class="cls-1" d="M270.88,722.32H239.2l-20.7-80.26h27l10.7,59h.71l11.4-59h26.48l11.68,59h.42l10.85-59h25.91L323,722.32H291.44l-9.58-51.26H281Z" transform="translate(-218.5 -348.77)"/><path class="cls-1" d="M385.35,722.32l-2.25-8.87q-6.48,10.56-18,10.56-9.43,0-15.42-5.28t-6-14.86a16.38,16.38,0,0,1,3.44-10.35,18.42,18.42,0,0,1,9.51-6.26q7.89-2.25,24.36-2.54c0-6.19-.28-9.48-.85-9.85s-2-.57-4.5-.57c-1.6,0-3.8.1-6.62.28q-6.76.28-18.3,1.55-1.14-7.61-1.69-16.33,7.46-1.54,15.63-2.61a115.89,115.89,0,0,1,14.64-1.05q11.26,0,16.9,3.73a17,17,0,0,1,7.32,9.79A55.49,55.49,0,0,1,405.07,685l-.14,20.7.42,16.62ZM381,706.83V696.41h-1.13q-10.42,0-11.54,1.13a4.41,4.41,0,0,0-1.06,2.11,10.77,10.77,0,0,0-.35,2.67c0,2.26.51,3.8,1.55,4.65a7.48,7.48,0,0,0,4.78,1.27A23.82,23.82,0,0,0,381,706.83Z" transform="translate(-218.5 -348.77)"/><path class="cls-1" d="M416.33,637.83l24.08-1v85.47H416.33Z" transform="translate(-218.5 -348.77)"/><path class="cls-1" d="M482.23,695.71c0,1.68,0,3.44.14,5.28s.37,3,.84,3.44q1,1,6.9,1l4.79-.14a86.06,86.06,0,0,1,1.27,15.63,44.75,44.75,0,0,1-7.82,1.83,60.78,60.78,0,0,1-9.78.84q-9.72,0-15-4.29T458.29,706V671.35H447.73V658.53l10.56-1,6.34-15.49,17.6-1v16.48h14.92v13.8H482.23Z" transform="translate(-218.5 -348.77)"/><path class="cls-1" d="M556.71,704.72c.85,0,2.4-.1,4.65-.29l2.11,14.51Q552.63,724,535.31,724q-16.2,0-24.85-8.17T501.8,691.2A60.7,60.7,0,0,1,504,674.87q2.17-7.89,5-11t11-5.35a58.71,58.71,0,0,1,15.91-2.25q12.68,0,19,4.51a20.88,20.88,0,0,1,8.31,12.46q2,7.95,2,21.33-9.57.57-18.73.56h-20q0,4.51,1.9,6.76a8.91,8.91,0,0,0,5.42,2.89,59.28,59.28,0,0,0,9.86.63Q547.13,705.42,556.71,704.72Zm-30.13-28q-.42,3.24-.56,7.32h7.32q6.61,0,9.57-.14,0-6.76-1.9-9.58t-6.55-2.81a13.4,13.4,0,0,0-6.61,1.55C527.28,673.32,526.86,674.54,526.58,676.7Z" transform="translate(-218.5 -348.77)"/><path class="cls-1" d="M617.61,656.56a10.66,10.66,0,0,1,3,1c0,2.06-.24,5.47-.71,10.2s-.89,8.1-1.27,10.07c-.93-.09-2.67-.14-5.21-.14a112.08,112.08,0,0,0-15.77,1v43.65H573.61V657.55h20.13L596.56,668h.14a39.49,39.49,0,0,1,8.73-8.59c3.1-2.16,5.86-3.24,8.31-3.24A19.22,19.22,0,0,1,617.61,656.56Z" transform="translate(-218.5 -348.77)"/><path class="cls-1" d="M712.3,719.64a47.55,47.55,0,0,1-12.11,3.24,90.58,90.58,0,0,1-12.81,1q-19.15,0-30-10t-10.85-30.7q0-21.12,11.41-31.61t32.1-10.49a84.42,84.42,0,0,1,20.56,2.68q0,2.82-.56,8.37a65.1,65.1,0,0,1-1.13,7.82h-8.87q-9.72,0-15.28.35c-3.71.24-5.94.68-6.69,1.34q-2.1,2-3.23,8a61.44,61.44,0,0,0-1.13,11.48q0,9.59,2.39,14.72t6.06,6.82q3.51,1.7,11.68,1.69a164.24,164.24,0,0,0,16.9-1.12Z" transform="translate(-218.5 -348.77)"/><path class="cls-1" d="M758.91,722.32l-2.26-8.87q-6.48,10.56-18,10.56-9.43,0-15.42-5.28t-6-14.86a16.33,16.33,0,0,1,3.45-10.35,18.39,18.39,0,0,1,9.5-6.26q7.89-2.25,24.36-2.54c0-6.19-.28-9.48-.84-9.85s-2-.57-4.51-.57c-1.6,0-3.8.1-6.62.28q-6.75.28-18.3,1.55-1.14-7.61-1.69-16.33,7.45-1.54,15.63-2.61a115.89,115.89,0,0,1,14.64-1.05q11.26,0,16.9,3.73a17,17,0,0,1,7.32,9.79A55.11,55.11,0,0,1,778.62,685l-.14,20.7.42,16.62Zm-4.37-15.49V696.41h-1.13q-10.41,0-11.54,1.13a4.41,4.41,0,0,0-1.06,2.11,11.27,11.27,0,0,0-.35,2.67c0,2.26.51,3.8,1.55,4.65a7.51,7.51,0,0,0,4.79,1.27A23.71,23.71,0,0,0,754.54,706.83Z" transform="translate(-218.5 -348.77)"/><path class="cls-1" d="M854,669.37q.63,6.21.63,18.87v34.08H830.57V682.75q0-4.5-.7-5.63-1.12-1.41-5.21-1.41a23.65,23.65,0,0,0-3,.14,24.54,24.54,0,0,0-8.16,1.83v44.64H789.46V657.55H809l2.68,10.84q10.14-12.25,24.22-12.25a31.23,31.23,0,0,1,9.5,1.41,14.05,14.05,0,0,1,6.69,4.08C853,662.66,853.6,665.24,854,669.37Z" transform="translate(-218.5 -348.77)"/><path class="cls-1" d="M895.63,695.71c0,1.68,0,3.44.14,5.28s.37,3,.84,3.44q1,1,6.9,1l4.79-.14a86.06,86.06,0,0,1,1.27,15.63,44.75,44.75,0,0,1-7.82,1.83,60.78,60.78,0,0,1-9.78.84q-9.72,0-15-4.29T871.69,706V671.35H861.13V658.53l10.56-1L878,642.06l17.6-1v16.48h14.92v13.8H895.63Z" transform="translate(-218.5 -348.77)"/><path class="cls-1" d="M982.5,657.55v64.77H962.93l-2.68-10.84Q950.13,723.72,936,723.73a31.56,31.56,0,0,1-9.51-1.41,14,14,0,0,1-6.69-4.09c-.84-1-1.48-3.61-1.9-7.74s-.63-10.42-.63-18.87V657.55h24.08v33.79c0,1.88,0,4.08.14,6.62s.37,4.13.84,4.79q1,1.39,5.63,1.4l2.26-.14a24.1,24.1,0,0,0,8.16-1.83V657.55ZM949,636q6.62-5.21,13.24-9.71l7.46,11q-4.52,3.11-12,7.74t-13,7.89l-5.64-8.17A89,89,0,0,1,949,636Z" transform="translate(-218.5 -348.77)"/><path class="cls-1" d="M423.83,745h4.6l5.09,13.37L438.66,745h4.6l-6.66,16.72,6.61,15.86,13-32.79h5.3l-16.07,38.42H441.2l-7.63-18.13-7.68,18.13h-4.22l-16-38.42h5.25l13,32.79,6.55-15.86Z" transform="translate(-218.5 -348.77)"/><path class="cls-1" d="M474.59,783.77a14.27,14.27,0,0,1-5.84-1.17,13.76,13.76,0,0,1-4.55-3.16,14.71,14.71,0,0,1-2.95-4.68,15.38,15.38,0,0,1-1.05-5.66,15.18,15.18,0,0,1,1.05-5.63,14.52,14.52,0,0,1,3-4.65,14.06,14.06,0,0,1,4.57-3.16,14.3,14.3,0,0,1,5.84-1.17,14,14,0,0,1,5.82,1.19,13.79,13.79,0,0,1,4.46,3.17,14,14,0,0,1,2.85,4.6,15.29,15.29,0,0,1,1,5.44q0,.58,0,1.08c0,.32-.05.58-.08.76H465.23a11.08,11.08,0,0,0,1,3.84,10,10,0,0,0,2.11,3,9.84,9.84,0,0,0,2.95,2,8.77,8.77,0,0,0,3.49.7,9.18,9.18,0,0,0,2.55-.35,11.27,11.27,0,0,0,2.32-.94,8.4,8.4,0,0,0,1.92-1.46,6,6,0,0,0,1.27-2l4.12,1.13a10.31,10.31,0,0,1-1.92,2.87,12.69,12.69,0,0,1-2.82,2.25,14.44,14.44,0,0,1-3.54,1.49A15.13,15.13,0,0,1,474.59,783.77Zm9.69-16.56a10.21,10.21,0,0,0-1-3.71,9.9,9.9,0,0,0-2.11-2.89,9.21,9.21,0,0,0-3-1.87,9.71,9.71,0,0,0-7.14,0,9.2,9.2,0,0,0-2.95,1.89,9.76,9.76,0,0,0-2.05,2.9,10.51,10.51,0,0,0-.95,3.68Z" transform="translate(-218.5 -348.77)"/><path class="cls-1" d="M508.57,783.77a11.42,11.42,0,0,1-6-1.63,12.24,12.24,0,0,1-4.27-4.22v5.31h-4.22v-39.5h4.76v16.88a14.73,14.73,0,0,1,4.38-4.44,11.71,11.71,0,0,1,11.31-.43,13,13,0,0,1,4,3.27,14.63,14.63,0,0,1,2.54,4.71,17.11,17.11,0,0,1,.89,5.49,15.54,15.54,0,0,1-1,5.63,14.77,14.77,0,0,1-2.82,4.62,13.21,13.21,0,0,1-4.24,3.14A12.2,12.2,0,0,1,508.57,783.77Zm-1.19-4.12a8.73,8.73,0,0,0,3.89-.86,9.73,9.73,0,0,0,3.09-2.33,10.6,10.6,0,0,0,2-3.33,11,11,0,0,0,.7-3.92,12,12,0,0,0-.67-4,10.76,10.76,0,0,0-1.9-3.38,9.41,9.41,0,0,0-2.92-2.35,7.9,7.9,0,0,0-3.76-.89,7.71,7.71,0,0,0-2.87.54,10.58,10.58,0,0,0-2.51,1.43,11,11,0,0,0-2.06,2.08,15.71,15.71,0,0,0-1.54,2.55v8.17a5.92,5.92,0,0,0,1.16,2.49,9.9,9.9,0,0,0,2.11,2,11.4,11.4,0,0,0,2.6,1.33A8.12,8.12,0,0,0,507.38,779.65Z" transform="translate(-218.5 -348.77)"/><path class="cls-1" d="M553.1,783.77a12.42,12.42,0,0,1-5.41-1.19,13.58,13.58,0,0,1-4.28-3.2,14.5,14.5,0,0,1-2.78-4.65,15.61,15.61,0,0,1-1-5.57,16.89,16.89,0,0,1,.94-5.66,14.74,14.74,0,0,1,2.66-4.68,12.48,12.48,0,0,1,4-3.16,11.45,11.45,0,0,1,5.17-1.17,10.75,10.75,0,0,1,6.09,1.79,14.13,14.13,0,0,1,4.25,4.33V743.73h4.76v33.65c0,1.12.5,1.7,1.51,1.73v4.12l-1.22.16c-.3,0-.6.05-.89.05a3.56,3.56,0,0,1-2.46-.94,2.91,2.91,0,0,1-1-2.2v-2.38a12.21,12.21,0,0,1-10.34,5.85Zm1.14-4.12a8.06,8.06,0,0,0,2.67-.48,10.41,10.41,0,0,0,2.6-1.36,9.64,9.64,0,0,0,2.11-2,6.16,6.16,0,0,0,1.17-2.47v-8.11a9.33,9.33,0,0,0-1.46-2.57,11,11,0,0,0-2.2-2.11,10.37,10.37,0,0,0-2.59-1.41,7.85,7.85,0,0,0-2.74-.51,8,8,0,0,0-3.81.89,9.22,9.22,0,0,0-2.92,2.38,10.75,10.75,0,0,0-1.87,3.41,12.25,12.25,0,0,0-.65,3.92,10.77,10.77,0,0,0,.76,4,10.6,10.6,0,0,0,2.05,3.33,10,10,0,0,0,3.06,2.25A8.89,8.89,0,0,0,554.24,779.65Z" transform="translate(-218.5 -348.77)"/><path class="cls-1" d="M588,783.77a14.27,14.27,0,0,1-5.84-1.17,13.76,13.76,0,0,1-4.55-3.16,14.71,14.71,0,0,1-3-4.68,15.38,15.38,0,0,1-1-5.66,15.18,15.18,0,0,1,1-5.63,14.52,14.52,0,0,1,3-4.65,14.06,14.06,0,0,1,4.57-3.16,14.33,14.33,0,0,1,5.84-1.17,13.85,13.85,0,0,1,10.29,4.36,14.17,14.17,0,0,1,2.84,4.6,15.29,15.29,0,0,1,1,5.44q0,.58,0,1.08a5.54,5.54,0,0,1-.08.76H578.64a11.08,11.08,0,0,0,1,3.84,10.18,10.18,0,0,0,2.11,3,9.84,9.84,0,0,0,2.95,2,8.81,8.81,0,0,0,3.49.7,9.13,9.13,0,0,0,2.55-.35,11.05,11.05,0,0,0,2.32-.94,8.4,8.4,0,0,0,1.92-1.46,6.05,6.05,0,0,0,1.28-2l4.11,1.13a10.31,10.31,0,0,1-1.92,2.87,12.47,12.47,0,0,1-2.82,2.25,14.44,14.44,0,0,1-3.54,1.49A15.13,15.13,0,0,1,588,783.77Zm9.69-16.56a10.41,10.41,0,0,0-1-3.71,10.08,10.08,0,0,0-2.11-2.89,9.66,9.66,0,0,0-10.1-1.87,9.16,9.16,0,0,0-2.94,1.89,9.61,9.61,0,0,0-2.06,2.9,10.73,10.73,0,0,0-1,3.68Z" transform="translate(-218.5 -348.77)"/><path class="cls-1" d="M614.89,783.23,603.75,755h4.92l8.93,24.08,9-24.08h4.55L620,783.23Z" transform="translate(-218.5 -348.77)"/><path class="cls-1" d="M647.36,783.77a14.35,14.35,0,0,1-5.85-1.17,13.82,13.82,0,0,1-4.54-3.16,14.53,14.53,0,0,1-3-4.68,15.38,15.38,0,0,1-1-5.66,15.18,15.18,0,0,1,1-5.63,14.36,14.36,0,0,1,3-4.65,14.06,14.06,0,0,1,4.57-3.16,14.3,14.3,0,0,1,5.84-1.17,14,14,0,0,1,5.82,1.19,13.7,13.7,0,0,1,7.3,7.77,15.08,15.08,0,0,1,1,5.44q0,.58,0,1.08c0,.32,0,.58-.08.76H638a11.08,11.08,0,0,0,1,3.84,10,10,0,0,0,2.11,3,9.84,9.84,0,0,0,2.95,2,8.77,8.77,0,0,0,3.49.7,9.06,9.06,0,0,0,2.54-.35,11.14,11.14,0,0,0,2.33-.94,8.4,8.4,0,0,0,1.92-1.46,6,6,0,0,0,1.27-2l4.12,1.13a10.13,10.13,0,0,1-1.93,2.87,12.63,12.63,0,0,1-2.81,2.25,14.44,14.44,0,0,1-3.54,1.49A15.13,15.13,0,0,1,647.36,783.77ZM657,767.21a10,10,0,0,0-1-3.71,9.9,9.9,0,0,0-2.11-2.89,9.21,9.21,0,0,0-2.95-1.87,9.71,9.71,0,0,0-7.14,0,9.2,9.2,0,0,0-3,1.89,9.58,9.58,0,0,0-2,2.9,10.51,10.51,0,0,0-1,3.68Z" transform="translate(-218.5 -348.77)"/><path class="cls-1" d="M667,743.73h4.76v32.19a3.43,3.43,0,0,0,.84,2.46,3.05,3.05,0,0,0,2.35.9,6.71,6.71,0,0,0,1.41-.19,12.18,12.18,0,0,0,1.51-.46l.76,3.84a16.13,16.13,0,0,1-2.81.81,14.6,14.6,0,0,1-2.87.32,6,6,0,0,1-4.36-1.57,5.86,5.86,0,0,1-1.59-4.38Z" transform="translate(-218.5 -348.77)"/><path class="cls-1" d="M694.65,783.77a13.82,13.82,0,0,1-10.31-4.39,14.25,14.25,0,0,1-2.89-4.65,15.6,15.6,0,0,1,0-11.2,14.69,14.69,0,0,1,2.93-4.65,14.15,14.15,0,0,1,20.56,0,14.66,14.66,0,0,1,2.92,4.65,15.14,15.14,0,0,1,1,5.63,15.41,15.41,0,0,1-1,5.57,14,14,0,0,1-2.93,4.65,14.21,14.21,0,0,1-4.51,3.2A14,14,0,0,1,694.65,783.77Zm-9.36-14.56a11.24,11.24,0,0,0,.73,4.11,10.34,10.34,0,0,0,2,3.3,9.41,9.41,0,0,0,3,2.22,8.63,8.63,0,0,0,7.3,0,9.67,9.67,0,0,0,3-2.24,10.53,10.53,0,0,0,2-3.36,11.48,11.48,0,0,0,.73-4.14,11.31,11.31,0,0,0-.73-4.08,10.53,10.53,0,0,0-2-3.36,9.67,9.67,0,0,0-3-2.24,8.37,8.37,0,0,0-3.65-.81,8.24,8.24,0,0,0-3.65.83,9.59,9.59,0,0,0-3,2.28,10.7,10.7,0,0,0-2,3.35A11.48,11.48,0,0,0,685.29,769.21Z" transform="translate(-218.5 -348.77)"/><path class="cls-1" d="M729.93,783.77a11.13,11.13,0,0,1-6.2-1.74,13,13,0,0,1-4.24-4.38v17.1h-4.77V755H719v5.3a13,13,0,0,1,4.35-4.19,11.41,11.41,0,0,1,5.93-1.6,12.06,12.06,0,0,1,5.35,1.19,13.47,13.47,0,0,1,4.22,3.22,15.51,15.51,0,0,1,3.79,10.2,17.53,17.53,0,0,1-.92,5.71,14,14,0,0,1-2.6,4.65,12.37,12.37,0,0,1-4,3.14A11.29,11.29,0,0,1,729.93,783.77Zm-1.46-4.12a8,8,0,0,0,3.81-.89,9.22,9.22,0,0,0,2.92-2.38,10.63,10.63,0,0,0,1.87-3.38,12,12,0,0,0,.65-3.9,11.13,11.13,0,0,0-2.81-7.38,9.8,9.8,0,0,0-3.06-2.28,8.85,8.85,0,0,0-3.81-.83,7.7,7.7,0,0,0-2.68.51,11.68,11.68,0,0,0-2.6,1.35,9.55,9.55,0,0,0-2.11,2,6,6,0,0,0-1.16,2.47V773a12,12,0,0,0,1.51,2.62,10.55,10.55,0,0,0,2.11,2.11,10.07,10.07,0,0,0,2.54,1.41A8,8,0,0,0,728.47,779.65Z" transform="translate(-218.5 -348.77)"/><path class="cls-1" d="M760.93,783.77a14.3,14.3,0,0,1-5.84-1.17,13.87,13.87,0,0,1-4.55-3.16,14.51,14.51,0,0,1-2.94-4.68,15.18,15.18,0,0,1-1.06-5.66,15,15,0,0,1,1.06-5.63,14.33,14.33,0,0,1,3-4.65,14.16,14.16,0,0,1,4.57-3.16,14.35,14.35,0,0,1,5.85-1.17,13.85,13.85,0,0,1,10.28,4.36,14.17,14.17,0,0,1,2.84,4.6,15.07,15.07,0,0,1,1,5.44q0,.58,0,1.08a5.54,5.54,0,0,1-.08.76H751.57a10.86,10.86,0,0,0,1,3.84,9.82,9.82,0,0,0,2.11,3,9.6,9.6,0,0,0,3,2,8.77,8.77,0,0,0,3.49.7,9.11,9.11,0,0,0,2.54-.35,11.36,11.36,0,0,0,2.33-.94,8.4,8.4,0,0,0,1.92-1.46,6.19,6.19,0,0,0,1.27-2l4.11,1.13a10.31,10.31,0,0,1-1.92,2.87,12.63,12.63,0,0,1-2.81,2.25,14.68,14.68,0,0,1-3.55,1.49A15.13,15.13,0,0,1,760.93,783.77Zm9.69-16.56a10.2,10.2,0,0,0-1-3.71,10.08,10.08,0,0,0-2.11-2.89,9.32,9.32,0,0,0-3-1.87,9.71,9.71,0,0,0-7.14,0,9.09,9.09,0,0,0-2.95,1.89,9.61,9.61,0,0,0-2.06,2.9,10.73,10.73,0,0,0-.95,3.68Z" transform="translate(-218.5 -348.77)"/><path class="cls-1" d="M795.35,759.15A12.16,12.16,0,0,0,789,761a9.4,9.4,0,0,0-3.87,4.81v17.43h-4.76V755h4.44v6.55a13.26,13.26,0,0,1,3.84-4.74,9.58,9.58,0,0,1,5.09-2h.92a3.13,3.13,0,0,1,.65.06Z" transform="translate(-218.5 -348.77)"/><path class="cls-2" d="M663.52,407.56v87H616.25v47.26H583.44c-8,0-14.36.26-14.36.26h-31.6V510.28h47.27V463H632V407.56Z" transform="translate(-218.5 -348.77)"/><path class="cls-3" d="M743.54,471.38c-7-4.15-17.16-11.65-17.16-20.2V381.47a32.7,32.7,0,0,0-32.7-32.7h-30a31.51,31.51,0,0,0-31.51,31.51H685.1a9.77,9.77,0,0,1,9.77,9.77v69.19a15.57,15.57,0,0,0,8.39,13.82,2,2,0,0,1,0,3.5,15.58,15.58,0,0,0-8.39,13.82v69.18a9.76,9.76,0,0,1-9.77,9.77H647.61a31.51,31.51,0,0,0-31.51,31.51h77.58a32.7,32.7,0,0,0,32.7-32.69V498.44c0-8.56,10.16-16.05,17.16-20.2A4,4,0,0,0,743.54,471.38Z" transform="translate(-218.5 -348.77)"/><path class="cls-4" d="M506.13,459.24V390.05a9.78,9.78,0,0,1,9.77-9.77h37.5a31.5,31.5,0,0,0,31.5-31.51H507.32a32.7,32.7,0,0,0-32.7,32.7v69.71c0,8.56-10.16,16.05-17.16,20.2a4,4,0,0,0,0,6.86c7,4.14,17.16,11.64,17.16,20.2v69.71a32.7,32.7,0,0,0,32.7,32.69h30.41a31.51,31.51,0,0,0,31.51-31.51H515.9a9.77,9.77,0,0,1-9.77-9.77V490.38a15.57,15.57,0,0,0-8.39-13.82,2,2,0,0,1,0-3.5A15.57,15.57,0,0,0,506.13,459.24Z" transform="translate(-218.5 -348.77)"/></svg>